<mxfile host="app.diagrams.net" agent="Mozilla/5.0 (Windows NT 10.0; Win64; x64) AppleWebKit/537.36 (KHTML, like Gecko) Chrome/131.0.0.0 Safari/537.36" version="24.9.2">
  <diagram id="C5RBs43oDa-KdzZeNtuy" name="Page-1">
    <mxGraphModel dx="7170" dy="3780" grid="1" gridSize="10" guides="1" tooltips="1" connect="1" arrows="1" fold="1" page="1" pageScale="1" pageWidth="827" pageHeight="1169" math="0" shadow="0">
      <root>
        <mxCell id="WIyWlLk6GJQsqaUBKTNV-0" />
        <mxCell id="WIyWlLk6GJQsqaUBKTNV-1" parent="WIyWlLk6GJQsqaUBKTNV-0" />
        <mxCell id="itudX_r-34yZgfggLO3M-28" value="" style="edgeStyle=orthogonalEdgeStyle;rounded=0;orthogonalLoop=1;jettySize=auto;html=1;" parent="WIyWlLk6GJQsqaUBKTNV-1" edge="1">
          <mxGeometry relative="1" as="geometry">
            <mxPoint x="410" y="120" as="sourcePoint" />
            <mxPoint x="410.0588235294117" y="170.03921568627447" as="targetPoint" />
          </mxGeometry>
        </mxCell>
        <mxCell id="itudX_r-34yZgfggLO3M-20" value="" style="edgeStyle=orthogonalEdgeStyle;rounded=0;orthogonalLoop=1;jettySize=auto;html=1;exitX=0.5;exitY=1;exitDx=0;exitDy=0;" parent="WIyWlLk6GJQsqaUBKTNV-1" source="wbHT0PBJSshcKeom0m7--15" edge="1">
          <mxGeometry relative="1" as="geometry">
            <mxPoint x="410" y="460" as="targetPoint" />
            <mxPoint x="410.0588235294117" y="360.0000000000002" as="sourcePoint" />
          </mxGeometry>
        </mxCell>
        <mxCell id="itudX_r-34yZgfggLO3M-2" value="게시물 저장" style="shape=cylinder3;whiteSpace=wrap;html=1;boundedLbl=1;backgroundOutline=1;size=15;fillColor=#f8cecc;strokeColor=#b85450;" parent="WIyWlLk6GJQsqaUBKTNV-1" vertex="1">
          <mxGeometry x="180" y="440" width="100" height="70" as="geometry" />
        </mxCell>
        <mxCell id="itudX_r-34yZgfggLO3M-3" value="게시물 작성" style="rounded=0;whiteSpace=wrap;html=1;" parent="WIyWlLk6GJQsqaUBKTNV-1" vertex="1">
          <mxGeometry width="830" height="40" as="geometry" />
        </mxCell>
        <mxCell id="itudX_r-34yZgfggLO3M-22" style="edgeStyle=orthogonalEdgeStyle;rounded=0;orthogonalLoop=1;jettySize=auto;html=1;entryX=1;entryY=0.5;entryDx=0;entryDy=0;entryPerimeter=0;" parent="WIyWlLk6GJQsqaUBKTNV-1" edge="1">
          <mxGeometry relative="1" as="geometry">
            <mxPoint x="410" y="377.5" as="sourcePoint" />
            <mxPoint x="230" y="442.5" as="targetPoint" />
          </mxGeometry>
        </mxCell>
        <mxCell id="itudX_r-34yZgfggLO3M-49" value="" style="edgeStyle=orthogonalEdgeStyle;rounded=0;orthogonalLoop=1;jettySize=auto;html=1;" parent="WIyWlLk6GJQsqaUBKTNV-1" edge="1">
          <mxGeometry relative="1" as="geometry">
            <mxPoint x="1260" y="170" as="targetPoint" />
            <mxPoint x="1110" y="105" as="sourcePoint" />
          </mxGeometry>
        </mxCell>
        <mxCell id="itudX_r-34yZgfggLO3M-66" value="" style="edgeStyle=orthogonalEdgeStyle;rounded=0;orthogonalLoop=1;jettySize=auto;html=1;" parent="WIyWlLk6GJQsqaUBKTNV-1" source="itudX_r-34yZgfggLO3M-53" target="itudX_r-34yZgfggLO3M-63" edge="1">
          <mxGeometry relative="1" as="geometry">
            <Array as="points">
              <mxPoint x="1365" y="190" />
              <mxPoint x="1365" y="155" />
              <mxPoint x="1500" y="155" />
            </Array>
          </mxGeometry>
        </mxCell>
        <mxCell id="itudX_r-34yZgfggLO3M-68" value="" style="edgeStyle=orthogonalEdgeStyle;rounded=0;orthogonalLoop=1;jettySize=auto;html=1;" parent="WIyWlLk6GJQsqaUBKTNV-1" source="itudX_r-34yZgfggLO3M-53" edge="1">
          <mxGeometry relative="1" as="geometry">
            <mxPoint x="1260" y="330" as="targetPoint" />
          </mxGeometry>
        </mxCell>
        <mxCell id="itudX_r-34yZgfggLO3M-53" value="투표 저장" style="shape=cylinder3;whiteSpace=wrap;html=1;boundedLbl=1;backgroundOutline=1;size=15;fillColor=#f8cecc;strokeColor=#b85450;" parent="WIyWlLk6GJQsqaUBKTNV-1" vertex="1">
          <mxGeometry x="1210" y="170" width="100" height="70" as="geometry" />
        </mxCell>
        <mxCell id="itudX_r-34yZgfggLO3M-54" value="투표" style="rounded=0;whiteSpace=wrap;html=1;" parent="WIyWlLk6GJQsqaUBKTNV-1" vertex="1">
          <mxGeometry x="850" width="830" height="40" as="geometry" />
        </mxCell>
        <mxCell id="itudX_r-34yZgfggLO3M-67" value="" style="edgeStyle=orthogonalEdgeStyle;rounded=0;orthogonalLoop=1;jettySize=auto;html=1;" parent="WIyWlLk6GJQsqaUBKTNV-1" source="itudX_r-34yZgfggLO3M-63" target="itudX_r-34yZgfggLO3M-53" edge="1">
          <mxGeometry relative="1" as="geometry">
            <Array as="points">
              <mxPoint x="1500" y="260" />
              <mxPoint x="1375" y="260" />
              <mxPoint x="1375" y="220" />
            </Array>
          </mxGeometry>
        </mxCell>
        <mxCell id="itudX_r-34yZgfggLO3M-63" value="투표 참여" style="shape=parallelogram;perimeter=parallelogramPerimeter;whiteSpace=wrap;html=1;fixedSize=1;fillColor=#d5e8d4;strokeColor=#82b366;" parent="WIyWlLk6GJQsqaUBKTNV-1" vertex="1">
          <mxGeometry x="1440" y="185" width="120" height="50" as="geometry" />
        </mxCell>
        <mxCell id="itudX_r-34yZgfggLO3M-79" value="" style="edgeStyle=orthogonalEdgeStyle;rounded=0;orthogonalLoop=1;jettySize=auto;html=1;" parent="WIyWlLk6GJQsqaUBKTNV-1" edge="1">
          <mxGeometry relative="1" as="geometry">
            <mxPoint x="1270" y="690" as="targetPoint" />
            <mxPoint x="1120" y="625" as="sourcePoint" />
          </mxGeometry>
        </mxCell>
        <mxCell id="itudX_r-34yZgfggLO3M-83" value="이벤트 저장" style="shape=cylinder3;whiteSpace=wrap;html=1;boundedLbl=1;backgroundOutline=1;size=15;fillColor=#f8cecc;strokeColor=#b85450;" parent="WIyWlLk6GJQsqaUBKTNV-1" vertex="1">
          <mxGeometry x="1390" y="970" width="100" height="70" as="geometry" />
        </mxCell>
        <mxCell id="itudX_r-34yZgfggLO3M-84" value="이벤트" style="rounded=0;whiteSpace=wrap;html=1;" parent="WIyWlLk6GJQsqaUBKTNV-1" vertex="1">
          <mxGeometry x="860" y="520" width="830" height="40" as="geometry" />
        </mxCell>
        <mxCell id="itudX_r-34yZgfggLO3M-87" value="이벤트 조회" style="shape=parallelogram;perimeter=parallelogramPerimeter;whiteSpace=wrap;html=1;fixedSize=1;fillColor=#d5e8d4;strokeColor=#82b366;" parent="WIyWlLk6GJQsqaUBKTNV-1" vertex="1">
          <mxGeometry x="1030" y="810" width="120" height="50" as="geometry" />
        </mxCell>
        <mxCell id="itudX_r-34yZgfggLO3M-91" style="edgeStyle=orthogonalEdgeStyle;rounded=0;orthogonalLoop=1;jettySize=auto;html=1;" parent="WIyWlLk6GJQsqaUBKTNV-1" source="itudX_r-34yZgfggLO3M-89" target="itudX_r-34yZgfggLO3M-87" edge="1">
          <mxGeometry relative="1" as="geometry" />
        </mxCell>
        <mxCell id="itudX_r-34yZgfggLO3M-92" style="edgeStyle=orthogonalEdgeStyle;rounded=0;orthogonalLoop=1;jettySize=auto;html=1;" parent="WIyWlLk6GJQsqaUBKTNV-1" source="itudX_r-34yZgfggLO3M-89" target="itudX_r-34yZgfggLO3M-90" edge="1">
          <mxGeometry relative="1" as="geometry" />
        </mxCell>
        <mxCell id="itudX_r-34yZgfggLO3M-89" value="이벤트" style="rhombus;whiteSpace=wrap;html=1;fillColor=#ffe6cc;strokeColor=#d79b00;" parent="WIyWlLk6GJQsqaUBKTNV-1" vertex="1">
          <mxGeometry x="1200" y="690" width="140" height="80" as="geometry" />
        </mxCell>
        <mxCell id="itudX_r-34yZgfggLO3M-93" value="" style="edgeStyle=orthogonalEdgeStyle;rounded=0;orthogonalLoop=1;jettySize=auto;html=1;" parent="WIyWlLk6GJQsqaUBKTNV-1" source="itudX_r-34yZgfggLO3M-90" target="itudX_r-34yZgfggLO3M-83" edge="1">
          <mxGeometry relative="1" as="geometry" />
        </mxCell>
        <mxCell id="itudX_r-34yZgfggLO3M-94" style="edgeStyle=orthogonalEdgeStyle;rounded=0;orthogonalLoop=1;jettySize=auto;html=1;" parent="WIyWlLk6GJQsqaUBKTNV-1" source="itudX_r-34yZgfggLO3M-90" edge="1">
          <mxGeometry relative="1" as="geometry">
            <mxPoint x="1270.0285714285715" y="1090" as="targetPoint" />
          </mxGeometry>
        </mxCell>
        <mxCell id="itudX_r-34yZgfggLO3M-90" value="이벤트 참여" style="shape=parallelogram;perimeter=parallelogramPerimeter;whiteSpace=wrap;html=1;fixedSize=1;fillColor=#d5e8d4;strokeColor=#82b366;" parent="WIyWlLk6GJQsqaUBKTNV-1" vertex="1">
          <mxGeometry x="1380" y="810" width="120" height="50" as="geometry" />
        </mxCell>
        <mxCell id="itudX_r-34yZgfggLO3M-107" value="" style="edgeStyle=orthogonalEdgeStyle;rounded=0;orthogonalLoop=1;jettySize=auto;html=1;" parent="WIyWlLk6GJQsqaUBKTNV-1" edge="1">
          <mxGeometry relative="1" as="geometry">
            <mxPoint x="2100" y="170" as="targetPoint" />
            <mxPoint x="1950" y="105" as="sourcePoint" />
          </mxGeometry>
        </mxCell>
        <mxCell id="itudX_r-34yZgfggLO3M-109" value="캘린더 저장" style="shape=cylinder3;whiteSpace=wrap;html=1;boundedLbl=1;backgroundOutline=1;size=15;fillColor=#f8cecc;strokeColor=#b85450;" parent="WIyWlLk6GJQsqaUBKTNV-1" vertex="1">
          <mxGeometry x="2240" y="480" width="100" height="70" as="geometry" />
        </mxCell>
        <mxCell id="itudX_r-34yZgfggLO3M-110" value="캘린더" style="rounded=0;whiteSpace=wrap;html=1;" parent="WIyWlLk6GJQsqaUBKTNV-1" vertex="1">
          <mxGeometry x="1690" width="830" height="40" as="geometry" />
        </mxCell>
        <mxCell id="itudX_r-34yZgfggLO3M-120" style="edgeStyle=orthogonalEdgeStyle;rounded=0;orthogonalLoop=1;jettySize=auto;html=1;entryX=0;entryY=0.5;entryDx=0;entryDy=0;" parent="WIyWlLk6GJQsqaUBKTNV-1" source="itudX_r-34yZgfggLO3M-112" target="itudX_r-34yZgfggLO3M-119" edge="1">
          <mxGeometry relative="1" as="geometry">
            <Array as="points">
              <mxPoint x="1920" y="395" />
            </Array>
          </mxGeometry>
        </mxCell>
        <mxCell id="itudX_r-34yZgfggLO3M-112" value="일일 업무" style="shape=parallelogram;perimeter=parallelogramPerimeter;whiteSpace=wrap;html=1;fixedSize=1;fillColor=#d5e8d4;strokeColor=#82b366;" parent="WIyWlLk6GJQsqaUBKTNV-1" vertex="1">
          <mxGeometry x="1860" y="290" width="120" height="50" as="geometry" />
        </mxCell>
        <mxCell id="itudX_r-34yZgfggLO3M-113" style="edgeStyle=orthogonalEdgeStyle;rounded=0;orthogonalLoop=1;jettySize=auto;html=1;" parent="WIyWlLk6GJQsqaUBKTNV-1" source="itudX_r-34yZgfggLO3M-115" target="itudX_r-34yZgfggLO3M-112" edge="1">
          <mxGeometry relative="1" as="geometry" />
        </mxCell>
        <mxCell id="itudX_r-34yZgfggLO3M-114" style="edgeStyle=orthogonalEdgeStyle;rounded=0;orthogonalLoop=1;jettySize=auto;html=1;" parent="WIyWlLk6GJQsqaUBKTNV-1" source="itudX_r-34yZgfggLO3M-115" target="itudX_r-34yZgfggLO3M-118" edge="1">
          <mxGeometry relative="1" as="geometry" />
        </mxCell>
        <mxCell id="itudX_r-34yZgfggLO3M-115" value="업무확인" style="rhombus;whiteSpace=wrap;html=1;fillColor=#ffe6cc;strokeColor=#d79b00;" parent="WIyWlLk6GJQsqaUBKTNV-1" vertex="1">
          <mxGeometry x="2030" y="170" width="140" height="80" as="geometry" />
        </mxCell>
        <mxCell id="itudX_r-34yZgfggLO3M-121" style="edgeStyle=orthogonalEdgeStyle;rounded=0;orthogonalLoop=1;jettySize=auto;html=1;entryX=1;entryY=0.5;entryDx=0;entryDy=0;" parent="WIyWlLk6GJQsqaUBKTNV-1" source="itudX_r-34yZgfggLO3M-118" target="itudX_r-34yZgfggLO3M-119" edge="1">
          <mxGeometry relative="1" as="geometry">
            <Array as="points">
              <mxPoint x="2270" y="395" />
            </Array>
          </mxGeometry>
        </mxCell>
        <mxCell id="itudX_r-34yZgfggLO3M-118" value="팀별 업무" style="shape=parallelogram;perimeter=parallelogramPerimeter;whiteSpace=wrap;html=1;fixedSize=1;fillColor=#d5e8d4;strokeColor=#82b366;" parent="WIyWlLk6GJQsqaUBKTNV-1" vertex="1">
          <mxGeometry x="2210" y="290" width="120" height="50" as="geometry" />
        </mxCell>
        <mxCell id="itudX_r-34yZgfggLO3M-122" style="edgeStyle=orthogonalEdgeStyle;rounded=0;orthogonalLoop=1;jettySize=auto;html=1;" parent="WIyWlLk6GJQsqaUBKTNV-1" source="itudX_r-34yZgfggLO3M-119" edge="1">
          <mxGeometry relative="1" as="geometry">
            <mxPoint x="2100" y="570" as="targetPoint" />
          </mxGeometry>
        </mxCell>
        <mxCell id="itudX_r-34yZgfggLO3M-119" value="업무 수행" style="shape=parallelogram;perimeter=parallelogramPerimeter;whiteSpace=wrap;html=1;fixedSize=1;fillColor=#d5e8d4;strokeColor=#82b366;" parent="WIyWlLk6GJQsqaUBKTNV-1" vertex="1">
          <mxGeometry x="2040" y="370" width="120" height="50" as="geometry" />
        </mxCell>
        <mxCell id="itudX_r-34yZgfggLO3M-123" style="edgeStyle=orthogonalEdgeStyle;rounded=0;orthogonalLoop=1;jettySize=auto;html=1;exitX=0.75;exitY=0;exitDx=0;exitDy=0;entryX=0;entryY=0;entryDx=0;entryDy=45;entryPerimeter=0;" parent="WIyWlLk6GJQsqaUBKTNV-1" edge="1">
          <mxGeometry relative="1" as="geometry">
            <mxPoint x="2150" y="595" as="sourcePoint" />
            <mxPoint x="2240" y="520" as="targetPoint" />
            <Array as="points">
              <mxPoint x="2150" y="596" />
              <mxPoint x="2196" y="596" />
              <mxPoint x="2196" y="520" />
            </Array>
          </mxGeometry>
        </mxCell>
        <mxCell id="itudX_r-34yZgfggLO3M-124" value="" style="edgeStyle=orthogonalEdgeStyle;rounded=0;orthogonalLoop=1;jettySize=auto;html=1;" parent="WIyWlLk6GJQsqaUBKTNV-1" edge="1">
          <mxGeometry relative="1" as="geometry">
            <mxPoint x="2888" y="560" as="targetPoint" />
            <mxPoint x="2738" y="495" as="sourcePoint" />
          </mxGeometry>
        </mxCell>
        <mxCell id="itudX_r-34yZgfggLO3M-126" value="데이터 베이스" style="shape=cylinder3;whiteSpace=wrap;html=1;boundedLbl=1;backgroundOutline=1;size=15;fillColor=#f8cecc;strokeColor=#b85450;" parent="WIyWlLk6GJQsqaUBKTNV-1" vertex="1">
          <mxGeometry x="3030" y="870" width="100" height="70" as="geometry" />
        </mxCell>
        <mxCell id="itudX_r-34yZgfggLO3M-127" value="업무 공유" style="rounded=0;whiteSpace=wrap;html=1;" parent="WIyWlLk6GJQsqaUBKTNV-1" vertex="1">
          <mxGeometry x="2478" y="390" width="830" height="40" as="geometry" />
        </mxCell>
        <mxCell id="itudX_r-34yZgfggLO3M-129" style="edgeStyle=orthogonalEdgeStyle;rounded=0;orthogonalLoop=1;jettySize=auto;html=1;entryX=0;entryY=0.5;entryDx=0;entryDy=0;" parent="WIyWlLk6GJQsqaUBKTNV-1" source="itudX_r-34yZgfggLO3M-130" target="itudX_r-34yZgfggLO3M-137" edge="1">
          <mxGeometry relative="1" as="geometry">
            <Array as="points">
              <mxPoint x="2708" y="785" />
            </Array>
          </mxGeometry>
        </mxCell>
        <mxCell id="itudX_r-34yZgfggLO3M-130" value="결과 공유" style="shape=parallelogram;perimeter=parallelogramPerimeter;whiteSpace=wrap;html=1;fixedSize=1;fillColor=#d5e8d4;strokeColor=#82b366;" parent="WIyWlLk6GJQsqaUBKTNV-1" vertex="1">
          <mxGeometry x="2648" y="680" width="120" height="50" as="geometry" />
        </mxCell>
        <mxCell id="itudX_r-34yZgfggLO3M-131" style="edgeStyle=orthogonalEdgeStyle;rounded=0;orthogonalLoop=1;jettySize=auto;html=1;" parent="WIyWlLk6GJQsqaUBKTNV-1" source="itudX_r-34yZgfggLO3M-133" target="itudX_r-34yZgfggLO3M-130" edge="1">
          <mxGeometry relative="1" as="geometry" />
        </mxCell>
        <mxCell id="itudX_r-34yZgfggLO3M-132" style="edgeStyle=orthogonalEdgeStyle;rounded=0;orthogonalLoop=1;jettySize=auto;html=1;" parent="WIyWlLk6GJQsqaUBKTNV-1" source="itudX_r-34yZgfggLO3M-133" target="itudX_r-34yZgfggLO3M-135" edge="1">
          <mxGeometry relative="1" as="geometry" />
        </mxCell>
        <mxCell id="itudX_r-34yZgfggLO3M-133" value="업무 진행" style="rhombus;whiteSpace=wrap;html=1;fillColor=#ffe6cc;strokeColor=#d79b00;" parent="WIyWlLk6GJQsqaUBKTNV-1" vertex="1">
          <mxGeometry x="2818" y="560" width="140" height="80" as="geometry" />
        </mxCell>
        <mxCell id="itudX_r-34yZgfggLO3M-134" style="edgeStyle=orthogonalEdgeStyle;rounded=0;orthogonalLoop=1;jettySize=auto;html=1;entryX=1;entryY=0.5;entryDx=0;entryDy=0;" parent="WIyWlLk6GJQsqaUBKTNV-1" source="itudX_r-34yZgfggLO3M-135" target="itudX_r-34yZgfggLO3M-137" edge="1">
          <mxGeometry relative="1" as="geometry">
            <Array as="points">
              <mxPoint x="3058" y="785" />
            </Array>
          </mxGeometry>
        </mxCell>
        <mxCell id="itudX_r-34yZgfggLO3M-135" value="결과 수정" style="shape=parallelogram;perimeter=parallelogramPerimeter;whiteSpace=wrap;html=1;fixedSize=1;fillColor=#d5e8d4;strokeColor=#82b366;" parent="WIyWlLk6GJQsqaUBKTNV-1" vertex="1">
          <mxGeometry x="2998" y="680" width="120" height="50" as="geometry" />
        </mxCell>
        <mxCell id="itudX_r-34yZgfggLO3M-136" style="edgeStyle=orthogonalEdgeStyle;rounded=0;orthogonalLoop=1;jettySize=auto;html=1;" parent="WIyWlLk6GJQsqaUBKTNV-1" source="itudX_r-34yZgfggLO3M-137" edge="1">
          <mxGeometry relative="1" as="geometry">
            <mxPoint x="2888" y="960" as="targetPoint" />
          </mxGeometry>
        </mxCell>
        <mxCell id="itudX_r-34yZgfggLO3M-137" value="업무 완료" style="shape=parallelogram;perimeter=parallelogramPerimeter;whiteSpace=wrap;html=1;fixedSize=1;fillColor=#d5e8d4;strokeColor=#82b366;" parent="WIyWlLk6GJQsqaUBKTNV-1" vertex="1">
          <mxGeometry x="2828" y="760" width="120" height="50" as="geometry" />
        </mxCell>
        <mxCell id="itudX_r-34yZgfggLO3M-138" style="edgeStyle=orthogonalEdgeStyle;rounded=0;orthogonalLoop=1;jettySize=auto;html=1;exitX=0.75;exitY=0;exitDx=0;exitDy=0;entryX=0;entryY=0;entryDx=0;entryDy=45;entryPerimeter=0;" parent="WIyWlLk6GJQsqaUBKTNV-1" edge="1">
          <mxGeometry relative="1" as="geometry">
            <mxPoint x="2938" y="985" as="sourcePoint" />
            <mxPoint x="3028" y="910" as="targetPoint" />
            <Array as="points">
              <mxPoint x="2984" y="986" />
              <mxPoint x="2984" y="910" />
            </Array>
          </mxGeometry>
        </mxCell>
        <mxCell id="wbHT0PBJSshcKeom0m7--1" value="게시물 작성" style="strokeWidth=1;html=1;shape=mxgraph.flowchart.terminator;whiteSpace=wrap;fillColor=#dae8fc;strokeColor=#6c8ebf;" vertex="1" parent="WIyWlLk6GJQsqaUBKTNV-1">
          <mxGeometry x="355" y="70" width="110" height="50" as="geometry" />
        </mxCell>
        <mxCell id="wbHT0PBJSshcKeom0m7--2" value="게시글 등록" style="strokeWidth=1;html=1;shape=mxgraph.flowchart.terminator;whiteSpace=wrap;fillColor=#dae8fc;strokeColor=#6c8ebf;" vertex="1" parent="WIyWlLk6GJQsqaUBKTNV-1">
          <mxGeometry x="355" y="460" width="110" height="50" as="geometry" />
        </mxCell>
        <mxCell id="wbHT0PBJSshcKeom0m7--4" value="투표 종료" style="strokeWidth=1;html=1;shape=mxgraph.flowchart.terminator;whiteSpace=wrap;fillColor=#dae8fc;strokeColor=#6c8ebf;" vertex="1" parent="WIyWlLk6GJQsqaUBKTNV-1">
          <mxGeometry x="1210" y="330" width="100" height="50" as="geometry" />
        </mxCell>
        <mxCell id="wbHT0PBJSshcKeom0m7--5" value="투표 생성" style="strokeWidth=1;html=1;shape=mxgraph.flowchart.terminator;whiteSpace=wrap;fillColor=#dae8fc;strokeColor=#6c8ebf;" vertex="1" parent="WIyWlLk6GJQsqaUBKTNV-1">
          <mxGeometry x="1010" y="80" width="100" height="50" as="geometry" />
        </mxCell>
        <mxCell id="wbHT0PBJSshcKeom0m7--6" value="이벤트 생성" style="strokeWidth=1;html=1;shape=mxgraph.flowchart.terminator;whiteSpace=wrap;fillColor=#dae8fc;strokeColor=#6c8ebf;" vertex="1" parent="WIyWlLk6GJQsqaUBKTNV-1">
          <mxGeometry x="1020" y="600" width="100" height="50" as="geometry" />
        </mxCell>
        <mxCell id="wbHT0PBJSshcKeom0m7--7" value="이벤트 종료" style="strokeWidth=1;html=1;shape=mxgraph.flowchart.terminator;whiteSpace=wrap;fillColor=#dae8fc;strokeColor=#6c8ebf;" vertex="1" parent="WIyWlLk6GJQsqaUBKTNV-1">
          <mxGeometry x="1220" y="1090" width="100" height="50" as="geometry" />
        </mxCell>
        <mxCell id="wbHT0PBJSshcKeom0m7--8" value="캘린더 작성" style="strokeWidth=1;html=1;shape=mxgraph.flowchart.terminator;whiteSpace=wrap;fillColor=#dae8fc;strokeColor=#6c8ebf;" vertex="1" parent="WIyWlLk6GJQsqaUBKTNV-1">
          <mxGeometry x="1850" y="80" width="100" height="50" as="geometry" />
        </mxCell>
        <mxCell id="wbHT0PBJSshcKeom0m7--9" value="업무 등록" style="strokeWidth=1;html=1;shape=mxgraph.flowchart.terminator;whiteSpace=wrap;fillColor=#dae8fc;strokeColor=#6c8ebf;" vertex="1" parent="WIyWlLk6GJQsqaUBKTNV-1">
          <mxGeometry x="2050" y="570" width="100" height="50" as="geometry" />
        </mxCell>
        <mxCell id="wbHT0PBJSshcKeom0m7--10" value="업무 수행" style="strokeWidth=1;html=1;shape=mxgraph.flowchart.terminator;whiteSpace=wrap;fillColor=#dae8fc;strokeColor=#6c8ebf;" vertex="1" parent="WIyWlLk6GJQsqaUBKTNV-1">
          <mxGeometry x="2640" y="470" width="100" height="50" as="geometry" />
        </mxCell>
        <mxCell id="wbHT0PBJSshcKeom0m7--11" value="업무 종료" style="strokeWidth=1;html=1;shape=mxgraph.flowchart.terminator;whiteSpace=wrap;fillColor=#dae8fc;strokeColor=#6c8ebf;" vertex="1" parent="WIyWlLk6GJQsqaUBKTNV-1">
          <mxGeometry x="2838" y="960" width="100" height="50" as="geometry" />
        </mxCell>
        <mxCell id="wbHT0PBJSshcKeom0m7--20" value="" style="edgeStyle=orthogonalEdgeStyle;rounded=0;orthogonalLoop=1;jettySize=auto;html=1;" edge="1" parent="WIyWlLk6GJQsqaUBKTNV-1" source="wbHT0PBJSshcKeom0m7--12" target="wbHT0PBJSshcKeom0m7--15">
          <mxGeometry relative="1" as="geometry" />
        </mxCell>
        <mxCell id="wbHT0PBJSshcKeom0m7--12" value="데이터 입력" style="shape=parallelogram;perimeter=parallelogramPerimeter;whiteSpace=wrap;html=1;fixedSize=1;fillColor=#d5e8d4;strokeColor=#82b366;" vertex="1" parent="WIyWlLk6GJQsqaUBKTNV-1">
          <mxGeometry x="350" y="170" width="120" height="50" as="geometry" />
        </mxCell>
        <mxCell id="wbHT0PBJSshcKeom0m7--21" style="edgeStyle=orthogonalEdgeStyle;rounded=0;orthogonalLoop=1;jettySize=auto;html=1;entryX=1;entryY=0.25;entryDx=0;entryDy=0;" edge="1" parent="WIyWlLk6GJQsqaUBKTNV-1" source="wbHT0PBJSshcKeom0m7--15" target="wbHT0PBJSshcKeom0m7--12">
          <mxGeometry relative="1" as="geometry">
            <Array as="points">
              <mxPoint x="610" y="300" />
              <mxPoint x="610" y="184" />
            </Array>
          </mxGeometry>
        </mxCell>
        <mxCell id="wbHT0PBJSshcKeom0m7--15" value="유효성 검사" style="rhombus;whiteSpace=wrap;html=1;fillColor=#ffe6cc;strokeColor=#d79b00;" vertex="1" parent="WIyWlLk6GJQsqaUBKTNV-1">
          <mxGeometry x="350" y="260" width="120" height="80" as="geometry" />
        </mxCell>
        <mxCell id="wbHT0PBJSshcKeom0m7--23" value="댓글 작성" style="rounded=0;whiteSpace=wrap;html=1;" vertex="1" parent="WIyWlLk6GJQsqaUBKTNV-1">
          <mxGeometry y="590" width="830" height="40" as="geometry" />
        </mxCell>
        <mxCell id="wbHT0PBJSshcKeom0m7--24" value="" style="edgeStyle=orthogonalEdgeStyle;rounded=0;orthogonalLoop=1;jettySize=auto;html=1;" edge="1" parent="WIyWlLk6GJQsqaUBKTNV-1">
          <mxGeometry relative="1" as="geometry">
            <mxPoint x="420" y="720" as="sourcePoint" />
            <mxPoint x="420.0588235294117" y="770.0392156862745" as="targetPoint" />
          </mxGeometry>
        </mxCell>
        <mxCell id="wbHT0PBJSshcKeom0m7--25" value="" style="edgeStyle=orthogonalEdgeStyle;rounded=0;orthogonalLoop=1;jettySize=auto;html=1;exitX=0.5;exitY=1;exitDx=0;exitDy=0;" edge="1" source="wbHT0PBJSshcKeom0m7--33" parent="WIyWlLk6GJQsqaUBKTNV-1">
          <mxGeometry relative="1" as="geometry">
            <mxPoint x="420" y="1060" as="targetPoint" />
            <mxPoint x="420.0588235294117" y="960.0000000000002" as="sourcePoint" />
          </mxGeometry>
        </mxCell>
        <mxCell id="wbHT0PBJSshcKeom0m7--26" value="댓글 저장" style="shape=cylinder3;whiteSpace=wrap;html=1;boundedLbl=1;backgroundOutline=1;size=15;fillColor=#f8cecc;strokeColor=#b85450;" vertex="1" parent="WIyWlLk6GJQsqaUBKTNV-1">
          <mxGeometry x="190" y="1040" width="100" height="70" as="geometry" />
        </mxCell>
        <mxCell id="wbHT0PBJSshcKeom0m7--27" style="edgeStyle=orthogonalEdgeStyle;rounded=0;orthogonalLoop=1;jettySize=auto;html=1;entryX=1;entryY=0.5;entryDx=0;entryDy=0;entryPerimeter=0;" edge="1" parent="WIyWlLk6GJQsqaUBKTNV-1">
          <mxGeometry relative="1" as="geometry">
            <mxPoint x="420" y="977.5" as="sourcePoint" />
            <mxPoint x="240" y="1042.5" as="targetPoint" />
          </mxGeometry>
        </mxCell>
        <mxCell id="wbHT0PBJSshcKeom0m7--28" value="댓글 작성" style="strokeWidth=1;html=1;shape=mxgraph.flowchart.terminator;whiteSpace=wrap;fillColor=#dae8fc;strokeColor=#6c8ebf;" vertex="1" parent="WIyWlLk6GJQsqaUBKTNV-1">
          <mxGeometry x="365" y="670" width="110" height="50" as="geometry" />
        </mxCell>
        <mxCell id="wbHT0PBJSshcKeom0m7--29" value="댓글 등록" style="strokeWidth=1;html=1;shape=mxgraph.flowchart.terminator;whiteSpace=wrap;fillColor=#dae8fc;strokeColor=#6c8ebf;" vertex="1" parent="WIyWlLk6GJQsqaUBKTNV-1">
          <mxGeometry x="365" y="1060" width="110" height="50" as="geometry" />
        </mxCell>
        <mxCell id="wbHT0PBJSshcKeom0m7--30" value="" style="edgeStyle=orthogonalEdgeStyle;rounded=0;orthogonalLoop=1;jettySize=auto;html=1;" edge="1" source="wbHT0PBJSshcKeom0m7--31" target="wbHT0PBJSshcKeom0m7--33" parent="WIyWlLk6GJQsqaUBKTNV-1">
          <mxGeometry relative="1" as="geometry" />
        </mxCell>
        <mxCell id="wbHT0PBJSshcKeom0m7--31" value="데이터 입력" style="shape=parallelogram;perimeter=parallelogramPerimeter;whiteSpace=wrap;html=1;fixedSize=1;fillColor=#d5e8d4;strokeColor=#82b366;" vertex="1" parent="WIyWlLk6GJQsqaUBKTNV-1">
          <mxGeometry x="360" y="770" width="120" height="50" as="geometry" />
        </mxCell>
        <mxCell id="wbHT0PBJSshcKeom0m7--32" style="edgeStyle=orthogonalEdgeStyle;rounded=0;orthogonalLoop=1;jettySize=auto;html=1;entryX=1;entryY=0.25;entryDx=0;entryDy=0;" edge="1" source="wbHT0PBJSshcKeom0m7--33" target="wbHT0PBJSshcKeom0m7--31" parent="WIyWlLk6GJQsqaUBKTNV-1">
          <mxGeometry relative="1" as="geometry">
            <Array as="points">
              <mxPoint x="620" y="900" />
              <mxPoint x="620" y="784" />
            </Array>
          </mxGeometry>
        </mxCell>
        <mxCell id="wbHT0PBJSshcKeom0m7--33" value="유효성 검사" style="rhombus;whiteSpace=wrap;html=1;fillColor=#ffe6cc;strokeColor=#d79b00;" vertex="1" parent="WIyWlLk6GJQsqaUBKTNV-1">
          <mxGeometry x="360" y="860" width="120" height="80" as="geometry" />
        </mxCell>
        <mxCell id="wbHT0PBJSshcKeom0m7--34" value="데이터 입력" style="shape=parallelogram;perimeter=parallelogramPerimeter;whiteSpace=wrap;html=1;fixedSize=1;fillColor=#d5e8d4;strokeColor=#82b366;" vertex="1" parent="WIyWlLk6GJQsqaUBKTNV-1">
          <mxGeometry x="1200" y="80" width="120" height="50" as="geometry" />
        </mxCell>
      </root>
    </mxGraphModel>
  </diagram>
</mxfile>
